<svg width="1921" height="1273" viewBox="0 0 1921 1273" fill="none" xmlns="http://www.w3.org/2000/svg">
<line x1="8.75" y1="2.375" x2="8.74997" y2="637.625" stroke="#7B92A7" stroke-opacity="0.15" stroke-width="2"/>
<line x1="61.6875" y1="2.375" x2="61.6875" y2="637.625" stroke="#7B92A7" stroke-opacity="0.15" stroke-width="2"/>
<line x1="114.625" y1="2.375" x2="114.625" y2="637.625" stroke="#7B92A7" stroke-opacity="0.15" stroke-width="2"/>
<line x1="167.562" y1="2.375" x2="167.562" y2="637.625" stroke="#7B92A7" stroke-opacity="0.15" stroke-width="2"/>
<line x1="220.5" y1="2.375" x2="220.5" y2="637.625" stroke="#7B92A7" stroke-opacity="0.15" stroke-width="2"/>
<line x1="273.438" y1="2.375" x2="273.437" y2="637.625" stroke="#7B92A7" stroke-opacity="0.15" stroke-width="2"/>
<line x1="326.375" y1="2.375" x2="326.375" y2="637.625" stroke="#7B92A7" stroke-opacity="0.15" stroke-width="2"/>
<line x1="379.312" y1="2.375" x2="379.312" y2="637.625" stroke="#7B92A7" stroke-opacity="0.15" stroke-width="2"/>
<line x1="432.25" y1="2.375" x2="432.25" y2="637.625" stroke="#7B92A7" stroke-opacity="0.5" stroke-width="2"/>
<line x1="-415.75" y1="636.625" x2="431.25" y2="636.625" stroke="#7B92A7" stroke-opacity="0.5" stroke-width="2"/>
<line x1="-415.75" y1="583.688" x2="431.25" y2="583.688" stroke="#7B92A7" stroke-opacity="0.15" stroke-width="2"/>
<line x1="-415.75" y1="530.75" x2="431.25" y2="530.75" stroke="#7B92A7" stroke-opacity="0.15" stroke-width="2"/>
<line x1="-415.75" y1="477.813" x2="431.25" y2="477.813" stroke="#7B92A7" stroke-opacity="0.15" stroke-width="2"/>
<line x1="-415.75" y1="424.875" x2="431.25" y2="424.875" stroke="#7B92A7" stroke-opacity="0.15" stroke-width="2"/>
<line x1="-415.75" y1="371.938" x2="431.25" y2="371.938" stroke="#7B92A7" stroke-opacity="0.15" stroke-width="2"/>
<line x1="-415.75" y1="319" x2="431.25" y2="319" stroke="#7B92A7" stroke-opacity="0.15" stroke-width="2"/>
<line x1="-415.75" y1="266.063" x2="431.25" y2="266.063" stroke="#7B92A7" stroke-opacity="0.15" stroke-width="2"/>
<line x1="-415.75" y1="213.126" x2="431.25" y2="213.126" stroke="#7B92A7" stroke-opacity="0.15" stroke-width="2"/>
<line x1="-415.75" y1="160.188" x2="431.25" y2="160.188" stroke="#7B92A7" stroke-opacity="0.15" stroke-width="2"/>
<line x1="-415.75" y1="107.251" x2="431.25" y2="107.251" stroke="#7B92A7" stroke-opacity="0.15" stroke-width="2"/>
<line x1="-415.75" y1="54.3134" x2="431.25" y2="54.3133" stroke="#7B92A7" stroke-opacity="0.15" stroke-width="2"/>
<line x1="-415.75" y1="1.37585" x2="431.25" y2="1.37578" stroke="#7B92A7" stroke-opacity="0.5" stroke-width="2"/>
<line x1="8.75" y1="637.375" x2="8.74997" y2="1272.62" stroke="#7B92A7" stroke-opacity="0.15" stroke-width="2"/>
<line x1="61.6875" y1="637.375" x2="61.6875" y2="1272.62" stroke="#7B92A7" stroke-opacity="0.15" stroke-width="2"/>
<line x1="114.625" y1="637.375" x2="114.625" y2="1272.62" stroke="#7B92A7" stroke-opacity="0.15" stroke-width="2"/>
<line x1="167.562" y1="637.375" x2="167.562" y2="1272.62" stroke="#7B92A7" stroke-opacity="0.15" stroke-width="2"/>
<line x1="220.5" y1="637.375" x2="220.5" y2="1272.62" stroke="#7B92A7" stroke-opacity="0.15" stroke-width="2"/>
<line x1="273.438" y1="637.375" x2="273.437" y2="1272.62" stroke="#7B92A7" stroke-opacity="0.15" stroke-width="2"/>
<line x1="326.375" y1="637.375" x2="326.375" y2="1272.62" stroke="#7B92A7" stroke-opacity="0.15" stroke-width="2"/>
<line x1="379.312" y1="637.375" x2="379.312" y2="1272.62" stroke="#7B92A7" stroke-opacity="0.15" stroke-width="2"/>
<line x1="432.25" y1="637.375" x2="432.25" y2="1272.62" stroke="#7B92A7" stroke-opacity="0.5" stroke-width="2"/>
<line x1="-415.75" y1="1271.62" x2="431.25" y2="1271.62" stroke="#7B92A7" stroke-opacity="0.5" stroke-width="2"/>
<line x1="-415.75" y1="1218.69" x2="431.25" y2="1218.69" stroke="#7B92A7" stroke-opacity="0.15" stroke-width="2"/>
<line x1="-415.75" y1="1165.75" x2="431.25" y2="1165.75" stroke="#7B92A7" stroke-opacity="0.15" stroke-width="2"/>
<line x1="-415.75" y1="1112.81" x2="431.25" y2="1112.81" stroke="#7B92A7" stroke-opacity="0.15" stroke-width="2"/>
<line x1="-415.75" y1="1059.88" x2="431.25" y2="1059.88" stroke="#7B92A7" stroke-opacity="0.15" stroke-width="2"/>
<line x1="-415.75" y1="1006.94" x2="431.25" y2="1006.94" stroke="#7B92A7" stroke-opacity="0.15" stroke-width="2"/>
<line x1="-415.75" y1="954" x2="431.25" y2="954" stroke="#7B92A7" stroke-opacity="0.15" stroke-width="2"/>
<line x1="-415.75" y1="901.063" x2="431.25" y2="901.063" stroke="#7B92A7" stroke-opacity="0.15" stroke-width="2"/>
<line x1="-415.75" y1="848.126" x2="431.25" y2="848.126" stroke="#7B92A7" stroke-opacity="0.15" stroke-width="2"/>
<line x1="-415.75" y1="795.188" x2="431.25" y2="795.188" stroke="#7B92A7" stroke-opacity="0.15" stroke-width="2"/>
<line x1="-415.75" y1="742.251" x2="431.25" y2="742.251" stroke="#7B92A7" stroke-opacity="0.15" stroke-width="2"/>
<line x1="-415.75" y1="689.313" x2="431.25" y2="689.313" stroke="#7B92A7" stroke-opacity="0.15" stroke-width="2"/>
<line x1="-415.75" y1="636.376" x2="431.25" y2="636.376" stroke="#7B92A7" stroke-opacity="0.5" stroke-width="2"/>
<line x1="432.25" y1="2.375" x2="432.25" y2="637.625" stroke="#7B92A7" stroke-opacity="0.5" stroke-width="2"/>
<line x1="485.188" y1="2.375" x2="485.187" y2="637.625" stroke="#7B92A7" stroke-opacity="0.15" stroke-width="2"/>
<line x1="538.125" y1="2.375" x2="538.125" y2="637.625" stroke="#7B92A7" stroke-opacity="0.15" stroke-width="2"/>
<line x1="591.062" y1="2.375" x2="591.062" y2="637.625" stroke="#7B92A7" stroke-opacity="0.15" stroke-width="2"/>
<line x1="644" y1="2.375" x2="644" y2="637.625" stroke="#7B92A7" stroke-opacity="0.15" stroke-width="2"/>
<line x1="696.938" y1="2.375" x2="696.938" y2="637.625" stroke="#7B92A7" stroke-opacity="0.15" stroke-width="2"/>
<line x1="749.875" y1="2.375" x2="749.875" y2="637.625" stroke="#7B92A7" stroke-opacity="0.15" stroke-width="2"/>
<line x1="802.812" y1="2.375" x2="802.812" y2="637.625" stroke="#7B92A7" stroke-opacity="0.15" stroke-width="2"/>
<line x1="855.75" y1="2.375" x2="855.75" y2="637.625" stroke="#7B92A7" stroke-opacity="0.15" stroke-width="2"/>
<line x1="908.688" y1="2.375" x2="908.688" y2="637.625" stroke="#7B92A7" stroke-opacity="0.15" stroke-width="2"/>
<line x1="961.625" y1="2.375" x2="961.625" y2="637.625" stroke="#7B92A7" stroke-opacity="0.15" stroke-width="2"/>
<line x1="1014.56" y1="2.375" x2="1014.56" y2="637.625" stroke="#7B92A7" stroke-opacity="0.15" stroke-width="2"/>
<line x1="1067.5" y1="2.375" x2="1067.5" y2="637.625" stroke="#7B92A7" stroke-opacity="0.15" stroke-width="2"/>
<line x1="1120.44" y1="2.375" x2="1120.44" y2="637.625" stroke="#7B92A7" stroke-opacity="0.15" stroke-width="2"/>
<line x1="1173.38" y1="2.375" x2="1173.38" y2="637.625" stroke="#7B92A7" stroke-opacity="0.15" stroke-width="2"/>
<line x1="1226.31" y1="2.375" x2="1226.31" y2="637.625" stroke="#7B92A7" stroke-opacity="0.15" stroke-width="2"/>
<line x1="1279.25" y1="2.375" x2="1279.25" y2="637.625" stroke="#7B92A7" stroke-opacity="0.5" stroke-width="2"/>
<line x1="431.25" y1="636.625" x2="1278.25" y2="636.625" stroke="#7B92A7" stroke-opacity="0.5" stroke-width="2"/>
<line x1="431.25" y1="583.688" x2="1278.25" y2="583.688" stroke="#7B92A7" stroke-opacity="0.15" stroke-width="2"/>
<line x1="431.25" y1="530.75" x2="1278.25" y2="530.75" stroke="#7B92A7" stroke-opacity="0.15" stroke-width="2"/>
<line x1="431.25" y1="477.813" x2="1278.25" y2="477.813" stroke="#7B92A7" stroke-opacity="0.15" stroke-width="2"/>
<line x1="431.25" y1="424.875" x2="1278.25" y2="424.875" stroke="#7B92A7" stroke-opacity="0.15" stroke-width="2"/>
<line x1="431.25" y1="371.938" x2="1278.25" y2="371.938" stroke="#7B92A7" stroke-opacity="0.15" stroke-width="2"/>
<line x1="431.25" y1="319" x2="1278.25" y2="319" stroke="#7B92A7" stroke-opacity="0.15" stroke-width="2"/>
<line x1="431.25" y1="266.063" x2="1278.25" y2="266.063" stroke="#7B92A7" stroke-opacity="0.15" stroke-width="2"/>
<line x1="431.25" y1="213.126" x2="1278.25" y2="213.126" stroke="#7B92A7" stroke-opacity="0.15" stroke-width="2"/>
<line x1="431.25" y1="160.188" x2="1278.25" y2="160.188" stroke="#7B92A7" stroke-opacity="0.15" stroke-width="2"/>
<line x1="431.25" y1="107.251" x2="1278.25" y2="107.251" stroke="#7B92A7" stroke-opacity="0.15" stroke-width="2"/>
<line x1="431.25" y1="54.3134" x2="1278.25" y2="54.3133" stroke="#7B92A7" stroke-opacity="0.15" stroke-width="2"/>
<line x1="431.25" y1="1.37585" x2="1278.25" y2="1.37578" stroke="#7B92A7" stroke-opacity="0.5" stroke-width="2"/>
<line x1="432.25" y1="637.375" x2="432.25" y2="1272.62" stroke="#7B92A7" stroke-opacity="0.5" stroke-width="2"/>
<line x1="485.188" y1="637.375" x2="485.187" y2="1272.62" stroke="#7B92A7" stroke-opacity="0.15" stroke-width="2"/>
<line x1="538.125" y1="637.375" x2="538.125" y2="1272.62" stroke="#7B92A7" stroke-opacity="0.15" stroke-width="2"/>
<line x1="591.062" y1="637.375" x2="591.062" y2="1272.62" stroke="#7B92A7" stroke-opacity="0.15" stroke-width="2"/>
<line x1="644" y1="637.375" x2="644" y2="1272.62" stroke="#7B92A7" stroke-opacity="0.15" stroke-width="2"/>
<line x1="696.938" y1="637.375" x2="696.938" y2="1272.62" stroke="#7B92A7" stroke-opacity="0.15" stroke-width="2"/>
<line x1="749.875" y1="637.375" x2="749.875" y2="1272.62" stroke="#7B92A7" stroke-opacity="0.15" stroke-width="2"/>
<line x1="802.812" y1="637.375" x2="802.812" y2="1272.62" stroke="#7B92A7" stroke-opacity="0.15" stroke-width="2"/>
<line x1="855.75" y1="637.375" x2="855.75" y2="1272.62" stroke="#7B92A7" stroke-opacity="0.15" stroke-width="2"/>
<line x1="908.688" y1="637.375" x2="908.688" y2="1272.62" stroke="#7B92A7" stroke-opacity="0.15" stroke-width="2"/>
<line x1="961.625" y1="637.375" x2="961.625" y2="1272.62" stroke="#7B92A7" stroke-opacity="0.15" stroke-width="2"/>
<line x1="1014.56" y1="637.375" x2="1014.56" y2="1272.62" stroke="#7B92A7" stroke-opacity="0.15" stroke-width="2"/>
<line x1="1067.5" y1="637.375" x2="1067.5" y2="1272.62" stroke="#7B92A7" stroke-opacity="0.15" stroke-width="2"/>
<line x1="1120.44" y1="637.375" x2="1120.44" y2="1272.62" stroke="#7B92A7" stroke-opacity="0.15" stroke-width="2"/>
<line x1="1173.38" y1="637.375" x2="1173.38" y2="1272.62" stroke="#7B92A7" stroke-opacity="0.15" stroke-width="2"/>
<line x1="1226.31" y1="637.375" x2="1226.31" y2="1272.62" stroke="#7B92A7" stroke-opacity="0.15" stroke-width="2"/>
<line x1="1279.25" y1="637.375" x2="1279.25" y2="1272.62" stroke="#7B92A7" stroke-opacity="0.5" stroke-width="2"/>
<line x1="431.25" y1="1271.62" x2="1278.25" y2="1271.62" stroke="#7B92A7" stroke-opacity="0.5" stroke-width="2"/>
<line x1="431.25" y1="1218.69" x2="1278.25" y2="1218.69" stroke="#7B92A7" stroke-opacity="0.15" stroke-width="2"/>
<line x1="431.25" y1="1165.75" x2="1278.25" y2="1165.75" stroke="#7B92A7" stroke-opacity="0.15" stroke-width="2"/>
<line x1="431.25" y1="1112.81" x2="1278.25" y2="1112.81" stroke="#7B92A7" stroke-opacity="0.15" stroke-width="2"/>
<line x1="431.25" y1="1059.88" x2="1278.25" y2="1059.88" stroke="#7B92A7" stroke-opacity="0.15" stroke-width="2"/>
<line x1="431.25" y1="1006.94" x2="1278.25" y2="1006.94" stroke="#7B92A7" stroke-opacity="0.15" stroke-width="2"/>
<line x1="431.25" y1="954" x2="1278.25" y2="954" stroke="#7B92A7" stroke-opacity="0.15" stroke-width="2"/>
<line x1="431.25" y1="901.063" x2="1278.25" y2="901.063" stroke="#7B92A7" stroke-opacity="0.15" stroke-width="2"/>
<line x1="431.25" y1="848.126" x2="1278.25" y2="848.126" stroke="#7B92A7" stroke-opacity="0.15" stroke-width="2"/>
<line x1="431.25" y1="795.188" x2="1278.25" y2="795.188" stroke="#7B92A7" stroke-opacity="0.15" stroke-width="2"/>
<line x1="431.25" y1="742.251" x2="1278.25" y2="742.251" stroke="#7B92A7" stroke-opacity="0.15" stroke-width="2"/>
<line x1="431.25" y1="689.313" x2="1278.25" y2="689.313" stroke="#7B92A7" stroke-opacity="0.15" stroke-width="2"/>
<line x1="431.25" y1="636.376" x2="1278.25" y2="636.376" stroke="#7B92A7" stroke-opacity="0.5" stroke-width="2"/>
<line x1="1279.25" y1="2.375" x2="1279.25" y2="637.625" stroke="#7B92A7" stroke-opacity="0.5" stroke-width="2"/>
<line x1="1332.19" y1="2.375" x2="1332.19" y2="637.625" stroke="#7B92A7" stroke-opacity="0.15" stroke-width="2"/>
<line x1="1385.12" y1="2.375" x2="1385.12" y2="637.625" stroke="#7B92A7" stroke-opacity="0.15" stroke-width="2"/>
<line x1="1438.06" y1="2.375" x2="1438.06" y2="637.625" stroke="#7B92A7" stroke-opacity="0.15" stroke-width="2"/>
<line x1="1491" y1="2.375" x2="1491" y2="637.625" stroke="#7B92A7" stroke-opacity="0.15" stroke-width="2"/>
<line x1="1543.94" y1="2.375" x2="1543.94" y2="637.625" stroke="#7B92A7" stroke-opacity="0.15" stroke-width="2"/>
<line x1="1596.88" y1="2.375" x2="1596.88" y2="637.625" stroke="#7B92A7" stroke-opacity="0.15" stroke-width="2"/>
<line x1="1649.81" y1="2.375" x2="1649.81" y2="637.625" stroke="#7B92A7" stroke-opacity="0.15" stroke-width="2"/>
<line x1="1702.75" y1="2.375" x2="1702.75" y2="637.625" stroke="#7B92A7" stroke-opacity="0.15" stroke-width="2"/>
<line x1="1755.69" y1="2.375" x2="1755.69" y2="637.625" stroke="#7B92A7" stroke-opacity="0.15" stroke-width="2"/>
<line x1="1808.62" y1="2.375" x2="1808.62" y2="637.625" stroke="#7B92A7" stroke-opacity="0.15" stroke-width="2"/>
<line x1="1861.56" y1="2.375" x2="1861.56" y2="637.625" stroke="#7B92A7" stroke-opacity="0.15" stroke-width="2"/>
<line x1="1914.5" y1="2.375" x2="1914.5" y2="637.625" stroke="#7B92A7" stroke-opacity="0.15" stroke-width="2"/>
<line x1="1278.25" y1="636.625" x2="2125.25" y2="636.625" stroke="#7B92A7" stroke-opacity="0.5" stroke-width="2"/>
<line x1="1278.25" y1="583.688" x2="2125.25" y2="583.688" stroke="#7B92A7" stroke-opacity="0.15" stroke-width="2"/>
<line x1="1278.25" y1="530.75" x2="2125.25" y2="530.75" stroke="#7B92A7" stroke-opacity="0.15" stroke-width="2"/>
<line x1="1278.25" y1="477.813" x2="2125.25" y2="477.813" stroke="#7B92A7" stroke-opacity="0.15" stroke-width="2"/>
<line x1="1278.25" y1="424.875" x2="2125.25" y2="424.875" stroke="#7B92A7" stroke-opacity="0.15" stroke-width="2"/>
<line x1="1278.25" y1="371.938" x2="2125.25" y2="371.938" stroke="#7B92A7" stroke-opacity="0.15" stroke-width="2"/>
<line x1="1278.25" y1="319" x2="2125.25" y2="319" stroke="#7B92A7" stroke-opacity="0.15" stroke-width="2"/>
<line x1="1278.25" y1="266.063" x2="2125.25" y2="266.063" stroke="#7B92A7" stroke-opacity="0.15" stroke-width="2"/>
<line x1="1278.25" y1="213.126" x2="2125.25" y2="213.126" stroke="#7B92A7" stroke-opacity="0.15" stroke-width="2"/>
<line x1="1278.25" y1="160.188" x2="2125.25" y2="160.188" stroke="#7B92A7" stroke-opacity="0.15" stroke-width="2"/>
<line x1="1278.25" y1="107.251" x2="2125.25" y2="107.251" stroke="#7B92A7" stroke-opacity="0.15" stroke-width="2"/>
<line x1="1278.25" y1="54.3134" x2="2125.25" y2="54.3133" stroke="#7B92A7" stroke-opacity="0.15" stroke-width="2"/>
<line x1="1278.25" y1="1.37585" x2="2125.25" y2="1.37578" stroke="#7B92A7" stroke-opacity="0.5" stroke-width="2"/>
<line x1="1279.25" y1="637.375" x2="1279.25" y2="1272.62" stroke="#7B92A7" stroke-opacity="0.5" stroke-width="2"/>
<line x1="1332.19" y1="637.375" x2="1332.19" y2="1272.62" stroke="#7B92A7" stroke-opacity="0.15" stroke-width="2"/>
<line x1="1385.12" y1="637.375" x2="1385.12" y2="1272.62" stroke="#7B92A7" stroke-opacity="0.15" stroke-width="2"/>
<line x1="1438.06" y1="637.375" x2="1438.06" y2="1272.62" stroke="#7B92A7" stroke-opacity="0.15" stroke-width="2"/>
<line x1="1491" y1="637.375" x2="1491" y2="1272.62" stroke="#7B92A7" stroke-opacity="0.15" stroke-width="2"/>
<line x1="1543.94" y1="637.375" x2="1543.94" y2="1272.62" stroke="#7B92A7" stroke-opacity="0.15" stroke-width="2"/>
<line x1="1596.88" y1="637.375" x2="1596.88" y2="1272.62" stroke="#7B92A7" stroke-opacity="0.15" stroke-width="2"/>
<line x1="1649.81" y1="637.375" x2="1649.81" y2="1272.62" stroke="#7B92A7" stroke-opacity="0.15" stroke-width="2"/>
<line x1="1702.75" y1="637.375" x2="1702.75" y2="1272.62" stroke="#7B92A7" stroke-opacity="0.15" stroke-width="2"/>
<line x1="1755.69" y1="637.375" x2="1755.69" y2="1272.62" stroke="#7B92A7" stroke-opacity="0.15" stroke-width="2"/>
<line x1="1808.62" y1="637.375" x2="1808.62" y2="1272.62" stroke="#7B92A7" stroke-opacity="0.15" stroke-width="2"/>
<line x1="1861.56" y1="637.375" x2="1861.56" y2="1272.62" stroke="#7B92A7" stroke-opacity="0.15" stroke-width="2"/>
<line x1="1914.5" y1="637.375" x2="1914.5" y2="1272.62" stroke="#7B92A7" stroke-opacity="0.15" stroke-width="2"/>
<line x1="1278.25" y1="1271.62" x2="2125.25" y2="1271.62" stroke="#7B92A7" stroke-opacity="0.5" stroke-width="2"/>
<line x1="1278.25" y1="1218.69" x2="2125.25" y2="1218.69" stroke="#7B92A7" stroke-opacity="0.15" stroke-width="2"/>
<line x1="1278.25" y1="1165.75" x2="2125.25" y2="1165.75" stroke="#7B92A7" stroke-opacity="0.15" stroke-width="2"/>
<line x1="1278.25" y1="1112.81" x2="2125.25" y2="1112.81" stroke="#7B92A7" stroke-opacity="0.15" stroke-width="2"/>
<line x1="1278.25" y1="1059.88" x2="2125.25" y2="1059.88" stroke="#7B92A7" stroke-opacity="0.15" stroke-width="2"/>
<line x1="1278.25" y1="1006.94" x2="2125.25" y2="1006.94" stroke="#7B92A7" stroke-opacity="0.15" stroke-width="2"/>
<line x1="1278.25" y1="954" x2="2125.25" y2="954" stroke="#7B92A7" stroke-opacity="0.15" stroke-width="2"/>
<line x1="1278.25" y1="901.063" x2="2125.25" y2="901.063" stroke="#7B92A7" stroke-opacity="0.15" stroke-width="2"/>
<line x1="1278.25" y1="848.126" x2="2125.25" y2="848.126" stroke="#7B92A7" stroke-opacity="0.15" stroke-width="2"/>
<line x1="1278.25" y1="795.188" x2="2125.25" y2="795.188" stroke="#7B92A7" stroke-opacity="0.15" stroke-width="2"/>
<line x1="1278.25" y1="742.251" x2="2125.25" y2="742.251" stroke="#7B92A7" stroke-opacity="0.15" stroke-width="2"/>
<line x1="1278.25" y1="689.313" x2="2125.25" y2="689.313" stroke="#7B92A7" stroke-opacity="0.15" stroke-width="2"/>
<line x1="1278.25" y1="636.376" x2="2125.25" y2="636.376" stroke="#7B92A7" stroke-opacity="0.5" stroke-width="2"/>
</svg>
